# xmcd CD database file
#
# Track frame offsets:
#	150
#	5072
#	21470
#	36255
#	53455
#	73897
#	89892
#	106180
#	123017
#	142630
#	159612
#	181302
#	198932
#	224887
#
# Disc length: 3944 seconds
#
# Revision: 1
# Processed by: cddbd v1.5.2PL0 Copyright (c) Steve Scherf et al.
# Submitted via: CDex 1.50
#
DISCID=c80f660e
DTITLE=Christina Milian - It's About Time
DYEAR=2004
DGENRE=R&B
TTITLE0=Intro
TTITLE1=Dip It Low
TTITLE2=I Need More
TTITLE3=Whatever U Want
TTITLE4=Someday One Day
TTITLE5=Highway
TTITLE6=Get Loose
TTITLE7=I'm Sorry
TTITLE8=L.O.V.E.
TTITLE9=Peanut Butter and Jelly
TTITLE10=Miss You Like Crazy
TTITLE11=Oh Daddy
TTITLE12=I Can Be That Woman
TTITLE13=Dip It Low Video
EXTD=! YEAR: 2004
EXTT0=
EXTT1=
EXTT2=
EXTT3=
EXTT4=
EXTT5=
EXTT6=
EXTT7=
EXTT8=
EXTT9=
EXTT10=
EXTT11=
EXTT12=
EXTT13=
PLAYORDER=
